<svg xmlns="http://www.w3.org/2000/svg" xmlns:xlink="http://www.w3.org/1999/xlink" id="terminal" baseProfile="full" viewBox="0 0 632 325" width="632" version="1.1">
    <defs>
        <termtosvg:template_settings xmlns:termtosvg="https://github.com/nbedos/termtosvg">
            <termtosvg:screen_geometry columns="79" rows="19"/>
            <termtosvg:animation type="css"/>
        </termtosvg:template_settings>
        <style type="text/css" id="generated-style"><![CDATA[#screen {
                font-family: 'DejaVu Sans Mono', monospace;
                font-style: normal;
                font-size: 14px;
            }

        text {
            dominant-baseline: text-before-edge;
            white-space: pre;
        }

            :root {
                --animation-duration: 16200ms;
            }

            @keyframes roll {
                0.000%{transform:translateY(0px)}
2.630%{transform:translateY(-340px)}
2.667%{transform:translateY(-680px)}
2.679%{transform:translateY(-1020px)}
2.691%{transform:translateY(-1360px)}
7.185%{transform:translateY(-1700px)}
8.142%{transform:translateY(-2040px)}
9.364%{transform:translateY(-2380px)}
11.778%{transform:translateY(-2720px)}
14.006%{transform:translateY(-3060px)}
15.370%{transform:translateY(-3400px)}
16.315%{transform:translateY(-3740px)}
16.549%{transform:translateY(-4080px)}
17.710%{transform:translateY(-4420px)}
18.833%{transform:translateY(-4760px)}
19.630%{transform:translateY(-5100px)}
21.049%{transform:translateY(-5440px)}
26.105%{transform:translateY(-5780px)}
27.623%{transform:translateY(-6120px)}
28.864%{transform:translateY(-6460px)}
31.870%{transform:translateY(-6800px)}
34.389%{transform:translateY(-7140px)}
35.630%{transform:translateY(-7480px)}
36.710%{transform:translateY(-7820px)}
37.346%{transform:translateY(-8160px)}
38.093%{transform:translateY(-8500px)}
41.568%{transform:translateY(-8840px)}
42.975%{transform:translateY(-9180px)}
43.759%{transform:translateY(-9520px)}
44.790%{transform:translateY(-9860px)}
45.623%{transform:translateY(-10200px)}
48.173%{transform:translateY(-10540px)}
49.395%{transform:translateY(-10880px)}
49.562%{transform:translateY(-11220px)}
50.241%{transform:translateY(-11560px)}
50.846%{transform:translateY(-11900px)}
52.426%{transform:translateY(-12240px)}
53.426%{transform:translateY(-12580px)}
56.525%{transform:translateY(-12920px)}
61.352%{transform:translateY(-13260px)}
62.309%{transform:translateY(-13600px)}
65.809%{transform:translateY(-13940px)}
65.815%{transform:translateY(-14280px)}
65.821%{transform:translateY(-14620px)}
65.833%{transform:translateY(-14960px)}
67.525%{transform:translateY(-15300px)}
70.543%{transform:translateY(-15640px)}
73.309%{transform:translateY(-15980px)}
76.802%{transform:translateY(-16320px)}
76.833%{transform:translateY(-16660px)}
77.167%{transform:translateY(-17000px)}
77.185%{transform:translateY(-17340px)}
77.315%{transform:translateY(-17680px)}
77.333%{transform:translateY(-18020px)}
93.827%{transform:translateY(-18360px)}
100.000%{transform:translateY(-18360px)}
            }

            #screen_view {
                animation-duration: 16200ms;
                animation-iteration-count:infinite;
                animation-name:roll;
                animation-timing-function: steps(1,end);
                animation-fill-mode: forwards;
            }
        ]]></style>
        <style type="text/css" id="user-style">
            /* The colors defined below are the default 16 colors used for rendering text of the terminal. Adjust
               them as needed.
               PowerShell colors based on https://en.wikipedia.org/wiki/ANSI_escape_code#Colors */
            .foreground {fill: #cccccc;}
            .background {fill: #0c0c0c;}
            .color0 {fill: #0c0c0c;}
            .color1 {fill: #c50f1f;}
            .color2 {fill: #13a10e;}
            .color3 {fill: #c19c00;}
            .color4 {fill: #0037da;}
            .color5 {fill: #881798;}
            .color6 {fill: #3a96dd;}
            .color7 {fill: #cccccc;}
            .color8 {fill: #767676;}
            .color9 {fill: #e74856;}
            .color10 {fill: #16c60c;}
            .color11 {fill: #f9f1a5;}
            .color12 {fill: #3b78ff;}
            .color13 {fill: #b4009e;}
            .color14 {fill: #61d6d6;}
            .color15 {fill: #f2f2f2;}
        </style>
    </defs>
    <svg id="screen" width="632" height="323" viewBox="0 0 632 323" preserveAspectRatio="xMidYMin slice">
    <rect class="background" height="100%" width="100%" x="0" y="0"/><defs><g id="g1"><text x="0" textLength="24" fill="#080808"> &#61817; </text><text x="24" textLength="8" class="color7">&#57532;</text><text x="32" textLength="24" fill="#e4e4e4"> &#61564; </text><text x="56" textLength="8" font-weight="bold" fill="#eeeeee">~</text><text x="64" textLength="8" fill="#e4e4e4">/</text><text x="72" textLength="32" font-weight="bold" fill="#eeeeee">demo</text><text x="104" textLength="8" fill="#e4e4e4"> </text><text x="112" textLength="8" class="color4">&#57520;</text><text x="120" textLength="336" fill="#585858">&#183;&#183;&#183;&#183;&#183;&#183;&#183;&#183;&#183;&#183;&#183;&#183;&#183;&#183;&#183;&#183;&#183;&#183;&#183;&#183;&#183;&#183;&#183;&#183;&#183;&#183;&#183;&#183;&#183;&#183;&#183;&#183;&#183;&#183;&#183;&#183;&#183;&#183;&#183;&#183;&#183;&#183;</text><text x="456" textLength="8" class="color7">&#57522;</text><text x="464" textLength="144" class="color0"> at 04:40:06 PM &#61463; </text><text x="608" textLength="16" fill="#585858">&#9472;&#9582;</text><text x="624" textLength="8" class="foreground"> </text></g><g id="g2"><text x="0" textLength="8" fill="#5fd700">&#10095;</text><text x="8" textLength="8" class="foreground"> </text><text x="16" textLength="8" class="background"> </text><text x="24" textLength="584" class="foreground">                                                                         </text><text x="608" textLength="16" fill="#585858">&#9472;&#9583;</text></g><g id="g3"><text x="0" textLength="8" fill="#5fd700">&#10095;</text><text x="8" textLength="600" class="foreground">                                                                           </text><text x="608" textLength="16" fill="#585858">&#9472;&#9583;</text></g><g id="g4"><text x="0" textLength="8" class="background"> </text><text x="8" textLength="624" class="foreground">                                                                              </text></g><g id="g5"><text x="0" textLength="624" class="foreground">                                                                              </text></g><g id="g6"><text x="0" textLength="8" fill="#5fd700">&#10095;</text><text x="8" textLength="8" class="foreground"> </text><text x="16" textLength="8" class="background"> </text><text x="24" textLength="584" class="foreground">                                                                         </text><text x="608" textLength="16" fill="#585858">&#9472;&#9583;</text><text x="624" textLength="8" class="foreground"> </text></g><g id="g7"><text x="0" textLength="8" fill="#5fd700">&#10095;</text><text x="8" textLength="16" class="foreground"> c</text><text x="24" textLength="8" class="background"> </text><text x="32" textLength="576" class="foreground">                                                                        </text><text x="608" textLength="16" fill="#585858">&#9472;&#9583;</text><text x="624" textLength="8" class="foreground"> </text></g><g id="g8"><text x="0" textLength="8" fill="#5fd700">&#10095;</text><text x="8" textLength="24" class="foreground"> cs</text><text x="32" textLength="8" class="background"> </text><text x="40" textLength="568" class="foreground">                                                                       </text><text x="608" textLength="16" fill="#585858">&#9472;&#9583;</text><text x="624" textLength="8" class="foreground"> </text></g><g id="g9"><text x="0" textLength="8" fill="#5fd700">&#10095;</text><text x="8" textLength="32" class="foreground"> csv</text><text x="40" textLength="8" class="background"> </text><text x="48" textLength="560" class="foreground">                                                                      </text><text x="608" textLength="16" fill="#585858">&#9472;&#9583;</text><text x="624" textLength="8" class="foreground"> </text></g><g id="g10"><text x="0" textLength="8" fill="#5fd700">&#10095;</text><text x="8" textLength="40" class="foreground"> csv2</text><text x="48" textLength="8" class="background"> </text><text x="56" textLength="552" class="foreground">                                                                     </text><text x="608" textLength="16" fill="#585858">&#9472;&#9583;</text><text x="624" textLength="8" class="foreground"> </text></g><g id="g11"><text x="0" textLength="8" fill="#5fd700">&#10095;</text><text x="8" textLength="48" class="foreground"> csv2h</text><text x="56" textLength="8" class="background"> </text><text x="64" textLength="544" class="foreground">                                                                    </text><text x="608" textLength="16" fill="#585858">&#9472;&#9583;</text><text x="624" textLength="8" class="foreground"> </text></g><g id="g12"><text x="0" textLength="8" fill="#5fd700">&#10095;</text><text x="8" textLength="56" class="foreground"> csv2ht</text><text x="64" textLength="8" class="background"> </text><text x="72" textLength="536" class="foreground">                                                                   </text><text x="608" textLength="16" fill="#585858">&#9472;&#9583;</text><text x="624" textLength="8" class="foreground"> </text></g><g id="g13"><text x="0" textLength="8" fill="#5fd700">&#10095;</text><text x="8" textLength="64" class="foreground"> csv2htt</text><text x="72" textLength="8" class="background"> </text><text x="80" textLength="528" class="foreground">                                                                  </text><text x="608" textLength="16" fill="#585858">&#9472;&#9583;</text><text x="624" textLength="8" class="foreground"> </text></g><g id="g14"><text x="0" textLength="8" fill="#5fd700">&#10095;</text><text x="8" textLength="72" class="foreground"> csv2http</text><text x="80" textLength="8" class="background"> </text><text x="88" textLength="520" class="foreground">                                                                 </text><text x="608" textLength="16" fill="#585858">&#9472;&#9583;</text><text x="624" textLength="8" class="foreground"> </text></g><g id="g15"><text x="0" textLength="8" fill="#5fd700">&#10095;</text><text x="8" textLength="80" class="foreground"> csv2http </text><text x="88" textLength="8" class="background"> </text><text x="96" textLength="512" class="foreground">                                                                </text><text x="608" textLength="16" fill="#585858">&#9472;&#9583;</text><text x="624" textLength="8" class="foreground"> </text></g><g id="g16"><text x="0" textLength="8" fill="#5fd700">&#10095;</text><text x="8" textLength="88" class="foreground"> csv2http m</text><text x="96" textLength="8" class="background"> </text><text x="104" textLength="504" class="foreground">                                                               </text><text x="608" textLength="16" fill="#585858">&#9472;&#9583;</text><text x="624" textLength="8" class="foreground"> </text></g><g id="g17"><text x="0" textLength="8" fill="#5fd700">&#10095;</text><text x="8" textLength="96" class="foreground"> csv2http my</text><text x="104" textLength="8" class="background"> </text><text x="112" textLength="496" class="foreground">                                                              </text><text x="608" textLength="16" fill="#585858">&#9472;&#9583;</text><text x="624" textLength="8" class="foreground"> </text></g><g id="g18"><text x="0" textLength="8" fill="#5fd700">&#10095;</text><text x="8" textLength="168" class="foreground"> csv2http my_file.csv</text><text x="176" textLength="8" font-weight="bold" class="foreground"> </text><text x="184" textLength="8" class="background"> </text><text x="192" textLength="416" class="foreground">                                                    </text><text x="608" textLength="16" fill="#585858">&#9472;&#9583;</text><text x="624" textLength="8" class="foreground"> </text></g><g id="g19"><text x="0" textLength="8" fill="#5fd700">&#10095;</text><text x="8" textLength="184" class="foreground"> csv2http my_file.csv h</text><text x="192" textLength="8" class="background"> </text><text x="200" textLength="408" class="foreground">                                                   </text><text x="608" textLength="16" fill="#585858">&#9472;&#9583;</text><text x="624" textLength="8" class="foreground"> </text></g><g id="g20"><text x="0" textLength="8" fill="#5fd700">&#10095;</text><text x="8" textLength="192" class="foreground"> csv2http my_file.csv ht</text><text x="200" textLength="8" class="background"> </text><text x="208" textLength="400" class="foreground">                                                  </text><text x="608" textLength="16" fill="#585858">&#9472;&#9583;</text><text x="624" textLength="8" class="foreground"> </text></g><g id="g21"><text x="0" textLength="8" fill="#5fd700">&#10095;</text><text x="8" textLength="200" class="foreground"> csv2http my_file.csv htt</text><text x="208" textLength="8" class="background"> </text><text x="216" textLength="392" class="foreground">                                                 </text><text x="608" textLength="16" fill="#585858">&#9472;&#9583;</text><text x="624" textLength="8" class="foreground"> </text></g><g id="g22"><text x="0" textLength="8" fill="#5fd700">&#10095;</text><text x="8" textLength="208" class="foreground"> csv2http my_file.csv httb</text><text x="216" textLength="8" class="background"> </text><text x="224" textLength="384" class="foreground">                                                </text><text x="608" textLength="16" fill="#585858">&#9472;&#9583;</text><text x="624" textLength="8" class="foreground"> </text></g><g id="g23"><text x="0" textLength="8" fill="#5fd700">&#10095;</text><text x="8" textLength="208" class="foreground"> csv2http my_file.csv http</text><text x="216" textLength="8" class="background"> </text><text x="224" textLength="384" class="foreground">                                                </text><text x="608" textLength="16" fill="#585858">&#9472;&#9583;</text><text x="624" textLength="8" class="foreground"> </text></g><g id="g24"><text x="0" textLength="8" fill="#5fd700">&#10095;</text><text x="8" textLength="216" class="foreground"> csv2http my_file.csv httpb</text><text x="224" textLength="8" class="background"> </text><text x="232" textLength="376" class="foreground">                                               </text><text x="608" textLength="16" fill="#585858">&#9472;&#9583;</text><text x="624" textLength="8" class="foreground"> </text></g><g id="g25"><text x="0" textLength="8" fill="#5fd700">&#10095;</text><text x="8" textLength="224" class="foreground"> csv2http my_file.csv httpbi</text><text x="232" textLength="8" class="background"> </text><text x="240" textLength="368" class="foreground">                                              </text><text x="608" textLength="16" fill="#585858">&#9472;&#9583;</text><text x="624" textLength="8" class="foreground"> </text></g><g id="g26"><text x="0" textLength="8" fill="#5fd700">&#10095;</text><text x="8" textLength="232" class="foreground"> csv2http my_file.csv httpbin</text><text x="240" textLength="8" class="background"> </text><text x="248" textLength="360" class="foreground">                                             </text><text x="608" textLength="16" fill="#585858">&#9472;&#9583;</text><text x="624" textLength="8" class="foreground"> </text></g><g id="g27"><text x="0" textLength="8" fill="#5fd700">&#10095;</text><text x="8" textLength="240" class="foreground"> csv2http my_file.csv httpbin.</text><text x="248" textLength="8" class="background"> </text><text x="256" textLength="352" class="foreground">                                            </text><text x="608" textLength="16" fill="#585858">&#9472;&#9583;</text><text x="624" textLength="8" class="foreground"> </text></g><g id="g28"><text x="0" textLength="8" fill="#5fd700">&#10095;</text><text x="8" textLength="248" class="foreground"> csv2http my_file.csv httpbin.o</text><text x="256" textLength="8" class="background"> </text><text x="264" textLength="344" class="foreground">                                           </text><text x="608" textLength="16" fill="#585858">&#9472;&#9583;</text><text x="624" textLength="8" class="foreground"> </text></g><g id="g29"><text x="0" textLength="8" fill="#5fd700">&#10095;</text><text x="8" textLength="256" class="foreground"> csv2http my_file.csv httpbin.or</text><text x="264" textLength="8" class="background"> </text><text x="272" textLength="336" class="foreground">                                          </text><text x="608" textLength="16" fill="#585858">&#9472;&#9583;</text><text x="624" textLength="8" class="foreground"> </text></g><g id="g30"><text x="0" textLength="8" fill="#5fd700">&#10095;</text><text x="8" textLength="264" class="foreground"> csv2http my_file.csv httpbin.org</text><text x="272" textLength="8" class="background"> </text><text x="280" textLength="328" class="foreground">                                         </text><text x="608" textLength="16" fill="#585858">&#9472;&#9583;</text><text x="624" textLength="8" class="foreground"> </text></g><g id="g31"><text x="0" textLength="8" fill="#5fd700">&#10095;</text><text x="8" textLength="272" class="foreground"> csv2http my_file.csv httpbin.org/</text><text x="280" textLength="8" class="background"> </text><text x="288" textLength="320" class="foreground">                                        </text><text x="608" textLength="16" fill="#585858">&#9472;&#9583;</text><text x="624" textLength="8" class="foreground"> </text></g><g id="g32"><text x="0" textLength="8" fill="#5fd700">&#10095;</text><text x="8" textLength="280" class="foreground"> csv2http my_file.csv httpbin.org/p</text><text x="288" textLength="8" class="background"> </text><text x="296" textLength="312" class="foreground">                                       </text><text x="608" textLength="16" fill="#585858">&#9472;&#9583;</text><text x="624" textLength="8" class="foreground"> </text></g><g id="g33"><text x="0" textLength="8" fill="#5fd700">&#10095;</text><text x="8" textLength="288" class="foreground"> csv2http my_file.csv httpbin.org/po</text><text x="296" textLength="8" class="background"> </text><text x="304" textLength="304" class="foreground">                                      </text><text x="608" textLength="16" fill="#585858">&#9472;&#9583;</text><text x="624" textLength="8" class="foreground"> </text></g><g id="g34"><text x="0" textLength="8" fill="#5fd700">&#10095;</text><text x="8" textLength="296" class="foreground"> csv2http my_file.csv httpbin.org/pos</text><text x="304" textLength="8" class="background"> </text><text x="312" textLength="296" class="foreground">                                     </text><text x="608" textLength="16" fill="#585858">&#9472;&#9583;</text><text x="624" textLength="8" class="foreground"> </text></g><g id="g35"><text x="0" textLength="8" fill="#5fd700">&#10095;</text><text x="8" textLength="304" class="foreground"> csv2http my_file.csv httpbin.org/post</text><text x="312" textLength="8" class="background"> </text><text x="320" textLength="288" class="foreground">                                    </text><text x="608" textLength="16" fill="#585858">&#9472;&#9583;</text><text x="624" textLength="8" class="foreground"> </text></g><g id="g36"><text x="0" textLength="8" fill="#5fd700">&#10095;</text><text x="8" textLength="312" class="foreground"> csv2http my_file.csv httpbin.org/post </text><text x="320" textLength="8" class="background"> </text><text x="328" textLength="280" class="foreground">                                   </text><text x="608" textLength="16" fill="#585858">&#9472;&#9583;</text><text x="624" textLength="8" class="foreground"> </text></g><g id="g37"><text x="0" textLength="8" fill="#5fd700">&#10095;</text><text x="8" textLength="320" class="foreground"> csv2http my_file.csv httpbin.org/post -</text><text x="328" textLength="8" class="background"> </text><text x="336" textLength="272" class="foreground">                                  </text><text x="608" textLength="16" fill="#585858">&#9472;&#9583;</text><text x="624" textLength="8" class="foreground"> </text></g><g id="g38"><text x="0" textLength="8" fill="#5fd700">&#10095;</text><text x="8" textLength="328" class="foreground"> csv2http my_file.csv httpbin.org/post -c</text><text x="336" textLength="8" class="background"> </text><text x="344" textLength="264" class="foreground">                                 </text><text x="608" textLength="16" fill="#585858">&#9472;&#9583;</text><text x="624" textLength="8" class="foreground"> </text></g><g id="g39"><text x="0" textLength="8" fill="#5fd700">&#10095;</text><text x="8" textLength="336" class="foreground"> csv2http my_file.csv httpbin.org/post -c </text><text x="344" textLength="8" class="background"> </text><text x="352" textLength="256" class="foreground">                                </text><text x="608" textLength="16" fill="#585858">&#9472;&#9583;</text><text x="624" textLength="8" class="foreground"> </text></g><g id="g40"><text x="0" textLength="8" fill="#5fd700">&#10095;</text><text x="8" textLength="344" class="foreground"> csv2http my_file.csv httpbin.org/post -c 9</text><text x="352" textLength="8" class="background"> </text><text x="360" textLength="248" class="foreground">                               </text><text x="608" textLength="16" fill="#585858">&#9472;&#9583;</text><text x="624" textLength="8" class="foreground"> </text></g><g id="g41"><text x="0" textLength="8" fill="#5fd700">&#10095;</text><text x="8" textLength="352" class="foreground"> csv2http my_file.csv httpbin.org/post -c 99</text><text x="360" textLength="8" class="background"> </text><text x="368" textLength="240" class="foreground">                              </text><text x="608" textLength="16" fill="#585858">&#9472;&#9583;</text><text x="624" textLength="8" class="foreground"> </text></g><g id="g42"><text x="0" textLength="8" fill="#5fd700">&#10095;</text><text x="8" textLength="600" class="foreground"> csv2http my_file.csv httpbin.org/post -c 99                               </text><text x="608" textLength="16" fill="#585858">&#9472;&#9583;</text><text x="624" textLength="8" class="foreground"> </text></g><g id="g43"><text x="0" textLength="8" fill="#5fd700">&#10095;</text><text x="8" textLength="624" class="foreground"> csv2http my_file.csv httpbin.org/post -c 99                                  </text></g><g id="g44"><text x="0" textLength="632" class="foreground"> POST http://httpbin.org/post                                                  </text></g><g id="g45"><text x="0" textLength="8" class="background"> </text></g><g id="g46"><text x="0" textLength="208" class="foreground">  status codes - {200: 99}</text></g><g id="g47"><text x="0" textLength="208" class="foreground">  status codes - {200: 52}</text></g><g id="g48"><text x="0" textLength="504" class="foreground">log file -&gt; /Users/gabriel/demo/my_file_2022-06-09T16_40_17.log</text></g><g id="g49"><text x="0" textLength="24" fill="#080808"> &#61817; </text><text x="24" textLength="8" class="color7">&#57532;</text><text x="32" textLength="24" fill="#e4e4e4"> &#61564; </text><text x="56" textLength="8" font-weight="bold" fill="#eeeeee">~</text><text x="64" textLength="8" fill="#e4e4e4">/</text><text x="72" textLength="32" font-weight="bold" fill="#eeeeee">demo</text><text x="104" textLength="8" fill="#e4e4e4"> </text><text x="112" textLength="8" class="color4">&#57520;</text><text x="120" textLength="336" fill="#585858">&#183;&#183;&#183;&#183;&#183;&#183;&#183;&#183;&#183;&#183;&#183;&#183;&#183;&#183;&#183;&#183;&#183;&#183;&#183;&#183;&#183;&#183;&#183;&#183;&#183;&#183;&#183;&#183;&#183;&#183;&#183;&#183;&#183;&#183;&#183;&#183;&#183;&#183;&#183;&#183;&#183;&#183;</text><text x="456" textLength="8" class="color7">&#57522;</text><text x="464" textLength="144" class="color0"> at 04:40:19 PM &#61463; </text><text x="608" textLength="16" fill="#585858">&#9472;&#9582;</text><text x="624" textLength="8" class="foreground"> </text></g><g id="g50"><text x="0" textLength="8" fill="#5fd700">&#10095;</text><text x="8" textLength="600" class="foreground">                                                                           </text><text x="608" textLength="16" fill="#585858">&#9472;&#9583;</text><text x="624" textLength="8" class="foreground"> </text></g></defs><g id="screen_view"><g><rect x="0" y="0" width="24" height="17" class="color7"/><rect x="24" y="0" width="88" height="17" class="color4"/><rect x="464" y="0" width="144" height="17" class="color7"/><use xlink:href="#g1" y="0"/><rect x="16" y="17" width="8" height="17" class="foreground"/><use xlink:href="#g2" y="17"/></g><g><rect x="0" y="340" width="24" height="17" class="color7"/><rect x="24" y="340" width="88" height="17" class="color4"/><rect x="464" y="340" width="144" height="17" class="color7"/><use xlink:href="#g1" y="340"/><use xlink:href="#g3" y="357"/></g><g><rect x="0" y="680" width="8" height="17" class="foreground"/><use xlink:href="#g4" y="680"/><use xlink:href="#g5" y="697"/></g><g><rect x="0" y="1020" width="24" height="17" class="color7"/><rect x="24" y="1020" width="88" height="17" class="color4"/><rect x="464" y="1020" width="144" height="17" class="color7"/><use xlink:href="#g1" y="1020"/><rect x="16" y="1037" width="8" height="17" class="foreground"/><use xlink:href="#g6" y="1037"/></g><g><rect x="0" y="1360" width="24" height="17" class="color7"/><rect x="24" y="1360" width="88" height="17" class="color4"/><rect x="464" y="1360" width="144" height="17" class="color7"/><use xlink:href="#g1" y="1360"/><rect x="16" y="1377" width="8" height="17" class="foreground"/><use xlink:href="#g6" y="1377"/></g><g><rect x="0" y="1700" width="24" height="17" class="color7"/><rect x="24" y="1700" width="88" height="17" class="color4"/><rect x="464" y="1700" width="144" height="17" class="color7"/><use xlink:href="#g1" y="1700"/><rect x="24" y="1717" width="8" height="17" class="foreground"/><use xlink:href="#g7" y="1717"/></g><g><rect x="0" y="2040" width="24" height="17" class="color7"/><rect x="24" y="2040" width="88" height="17" class="color4"/><rect x="464" y="2040" width="144" height="17" class="color7"/><use xlink:href="#g1" y="2040"/><rect x="32" y="2057" width="8" height="17" class="foreground"/><use xlink:href="#g8" y="2057"/></g><g><rect x="0" y="2380" width="24" height="17" class="color7"/><rect x="24" y="2380" width="88" height="17" class="color4"/><rect x="464" y="2380" width="144" height="17" class="color7"/><use xlink:href="#g1" y="2380"/><rect x="40" y="2397" width="8" height="17" class="foreground"/><use xlink:href="#g9" y="2397"/></g><g><rect x="0" y="2720" width="24" height="17" class="color7"/><rect x="24" y="2720" width="88" height="17" class="color4"/><rect x="464" y="2720" width="144" height="17" class="color7"/><use xlink:href="#g1" y="2720"/><rect x="48" y="2737" width="8" height="17" class="foreground"/><use xlink:href="#g10" y="2737"/></g><g><rect x="0" y="3060" width="24" height="17" class="color7"/><rect x="24" y="3060" width="88" height="17" class="color4"/><rect x="464" y="3060" width="144" height="17" class="color7"/><use xlink:href="#g1" y="3060"/><rect x="56" y="3077" width="8" height="17" class="foreground"/><use xlink:href="#g11" y="3077"/></g><g><rect x="0" y="3400" width="24" height="17" class="color7"/><rect x="24" y="3400" width="88" height="17" class="color4"/><rect x="464" y="3400" width="144" height="17" class="color7"/><use xlink:href="#g1" y="3400"/><rect x="64" y="3417" width="8" height="17" class="foreground"/><use xlink:href="#g12" y="3417"/></g><g><rect x="0" y="3740" width="24" height="17" class="color7"/><rect x="24" y="3740" width="88" height="17" class="color4"/><rect x="464" y="3740" width="144" height="17" class="color7"/><use xlink:href="#g1" y="3740"/><rect x="72" y="3757" width="8" height="17" class="foreground"/><use xlink:href="#g13" y="3757"/></g><g><rect x="0" y="4080" width="24" height="17" class="color7"/><rect x="24" y="4080" width="88" height="17" class="color4"/><rect x="464" y="4080" width="144" height="17" class="color7"/><use xlink:href="#g1" y="4080"/><rect x="80" y="4097" width="8" height="17" class="foreground"/><use xlink:href="#g14" y="4097"/></g><g><rect x="0" y="4420" width="24" height="17" class="color7"/><rect x="24" y="4420" width="88" height="17" class="color4"/><rect x="464" y="4420" width="144" height="17" class="color7"/><use xlink:href="#g1" y="4420"/><rect x="88" y="4437" width="8" height="17" class="foreground"/><use xlink:href="#g15" y="4437"/></g><g><rect x="0" y="4760" width="24" height="17" class="color7"/><rect x="24" y="4760" width="88" height="17" class="color4"/><rect x="464" y="4760" width="144" height="17" class="color7"/><use xlink:href="#g1" y="4760"/><rect x="96" y="4777" width="8" height="17" class="foreground"/><use xlink:href="#g16" y="4777"/></g><g><rect x="0" y="5100" width="24" height="17" class="color7"/><rect x="24" y="5100" width="88" height="17" class="color4"/><rect x="464" y="5100" width="144" height="17" class="color7"/><use xlink:href="#g1" y="5100"/><rect x="104" y="5117" width="8" height="17" class="foreground"/><use xlink:href="#g17" y="5117"/></g><g><rect x="0" y="5440" width="24" height="17" class="color7"/><rect x="24" y="5440" width="88" height="17" class="color4"/><rect x="464" y="5440" width="144" height="17" class="color7"/><use xlink:href="#g1" y="5440"/><rect x="184" y="5457" width="8" height="17" class="foreground"/><use xlink:href="#g18" y="5457"/></g><g><rect x="0" y="5780" width="24" height="17" class="color7"/><rect x="24" y="5780" width="88" height="17" class="color4"/><rect x="464" y="5780" width="144" height="17" class="color7"/><use xlink:href="#g1" y="5780"/><rect x="192" y="5797" width="8" height="17" class="foreground"/><use xlink:href="#g19" y="5797"/></g><g><rect x="0" y="6120" width="24" height="17" class="color7"/><rect x="24" y="6120" width="88" height="17" class="color4"/><rect x="464" y="6120" width="144" height="17" class="color7"/><use xlink:href="#g1" y="6120"/><rect x="200" y="6137" width="8" height="17" class="foreground"/><use xlink:href="#g20" y="6137"/></g><g><rect x="0" y="6460" width="24" height="17" class="color7"/><rect x="24" y="6460" width="88" height="17" class="color4"/><rect x="464" y="6460" width="144" height="17" class="color7"/><use xlink:href="#g1" y="6460"/><rect x="208" y="6477" width="8" height="17" class="foreground"/><use xlink:href="#g21" y="6477"/></g><g><rect x="0" y="6800" width="24" height="17" class="color7"/><rect x="24" y="6800" width="88" height="17" class="color4"/><rect x="464" y="6800" width="144" height="17" class="color7"/><use xlink:href="#g1" y="6800"/><rect x="216" y="6817" width="8" height="17" class="foreground"/><use xlink:href="#g22" y="6817"/></g><g><rect x="0" y="7140" width="24" height="17" class="color7"/><rect x="24" y="7140" width="88" height="17" class="color4"/><rect x="464" y="7140" width="144" height="17" class="color7"/><use xlink:href="#g1" y="7140"/><rect x="208" y="7157" width="8" height="17" class="foreground"/><use xlink:href="#g21" y="7157"/></g><g><rect x="0" y="7480" width="24" height="17" class="color7"/><rect x="24" y="7480" width="88" height="17" class="color4"/><rect x="464" y="7480" width="144" height="17" class="color7"/><use xlink:href="#g1" y="7480"/><rect x="216" y="7497" width="8" height="17" class="foreground"/><use xlink:href="#g23" y="7497"/></g><g><rect x="0" y="7820" width="24" height="17" class="color7"/><rect x="24" y="7820" width="88" height="17" class="color4"/><rect x="464" y="7820" width="144" height="17" class="color7"/><use xlink:href="#g1" y="7820"/><rect x="224" y="7837" width="8" height="17" class="foreground"/><use xlink:href="#g24" y="7837"/></g><g><rect x="0" y="8160" width="24" height="17" class="color7"/><rect x="24" y="8160" width="88" height="17" class="color4"/><rect x="464" y="8160" width="144" height="17" class="color7"/><use xlink:href="#g1" y="8160"/><rect x="232" y="8177" width="8" height="17" class="foreground"/><use xlink:href="#g25" y="8177"/></g><g><rect x="0" y="8500" width="24" height="17" class="color7"/><rect x="24" y="8500" width="88" height="17" class="color4"/><rect x="464" y="8500" width="144" height="17" class="color7"/><use xlink:href="#g1" y="8500"/><rect x="240" y="8517" width="8" height="17" class="foreground"/><use xlink:href="#g26" y="8517"/></g><g><rect x="0" y="8840" width="24" height="17" class="color7"/><rect x="24" y="8840" width="88" height="17" class="color4"/><rect x="464" y="8840" width="144" height="17" class="color7"/><use xlink:href="#g1" y="8840"/><rect x="248" y="8857" width="8" height="17" class="foreground"/><use xlink:href="#g27" y="8857"/></g><g><rect x="0" y="9180" width="24" height="17" class="color7"/><rect x="24" y="9180" width="88" height="17" class="color4"/><rect x="464" y="9180" width="144" height="17" class="color7"/><use xlink:href="#g1" y="9180"/><rect x="256" y="9197" width="8" height="17" class="foreground"/><use xlink:href="#g28" y="9197"/></g><g><rect x="0" y="9520" width="24" height="17" class="color7"/><rect x="24" y="9520" width="88" height="17" class="color4"/><rect x="464" y="9520" width="144" height="17" class="color7"/><use xlink:href="#g1" y="9520"/><rect x="264" y="9537" width="8" height="17" class="foreground"/><use xlink:href="#g29" y="9537"/></g><g><rect x="0" y="9860" width="24" height="17" class="color7"/><rect x="24" y="9860" width="88" height="17" class="color4"/><rect x="464" y="9860" width="144" height="17" class="color7"/><use xlink:href="#g1" y="9860"/><rect x="272" y="9877" width="8" height="17" class="foreground"/><use xlink:href="#g30" y="9877"/></g><g><rect x="0" y="10200" width="24" height="17" class="color7"/><rect x="24" y="10200" width="88" height="17" class="color4"/><rect x="464" y="10200" width="144" height="17" class="color7"/><use xlink:href="#g1" y="10200"/><rect x="280" y="10217" width="8" height="17" class="foreground"/><use xlink:href="#g31" y="10217"/></g><g><rect x="0" y="10540" width="24" height="17" class="color7"/><rect x="24" y="10540" width="88" height="17" class="color4"/><rect x="464" y="10540" width="144" height="17" class="color7"/><use xlink:href="#g1" y="10540"/><rect x="288" y="10557" width="8" height="17" class="foreground"/><use xlink:href="#g32" y="10557"/></g><g><rect x="0" y="10880" width="24" height="17" class="color7"/><rect x="24" y="10880" width="88" height="17" class="color4"/><rect x="464" y="10880" width="144" height="17" class="color7"/><use xlink:href="#g1" y="10880"/><rect x="296" y="10897" width="8" height="17" class="foreground"/><use xlink:href="#g33" y="10897"/></g><g><rect x="0" y="11220" width="24" height="17" class="color7"/><rect x="24" y="11220" width="88" height="17" class="color4"/><rect x="464" y="11220" width="144" height="17" class="color7"/><use xlink:href="#g1" y="11220"/><rect x="304" y="11237" width="8" height="17" class="foreground"/><use xlink:href="#g34" y="11237"/></g><g><rect x="0" y="11560" width="24" height="17" class="color7"/><rect x="24" y="11560" width="88" height="17" class="color4"/><rect x="464" y="11560" width="144" height="17" class="color7"/><use xlink:href="#g1" y="11560"/><rect x="312" y="11577" width="8" height="17" class="foreground"/><use xlink:href="#g35" y="11577"/></g><g><rect x="0" y="11900" width="24" height="17" class="color7"/><rect x="24" y="11900" width="88" height="17" class="color4"/><rect x="464" y="11900" width="144" height="17" class="color7"/><use xlink:href="#g1" y="11900"/><rect x="320" y="11917" width="8" height="17" class="foreground"/><use xlink:href="#g36" y="11917"/></g><g><rect x="0" y="12240" width="24" height="17" class="color7"/><rect x="24" y="12240" width="88" height="17" class="color4"/><rect x="464" y="12240" width="144" height="17" class="color7"/><use xlink:href="#g1" y="12240"/><rect x="328" y="12257" width="8" height="17" class="foreground"/><use xlink:href="#g37" y="12257"/></g><g><rect x="0" y="12580" width="24" height="17" class="color7"/><rect x="24" y="12580" width="88" height="17" class="color4"/><rect x="464" y="12580" width="144" height="17" class="color7"/><use xlink:href="#g1" y="12580"/><rect x="336" y="12597" width="8" height="17" class="foreground"/><use xlink:href="#g38" y="12597"/></g><g><rect x="0" y="12920" width="24" height="17" class="color7"/><rect x="24" y="12920" width="88" height="17" class="color4"/><rect x="464" y="12920" width="144" height="17" class="color7"/><use xlink:href="#g1" y="12920"/><rect x="344" y="12937" width="8" height="17" class="foreground"/><use xlink:href="#g39" y="12937"/></g><g><rect x="0" y="13260" width="24" height="17" class="color7"/><rect x="24" y="13260" width="88" height="17" class="color4"/><rect x="464" y="13260" width="144" height="17" class="color7"/><use xlink:href="#g1" y="13260"/><rect x="352" y="13277" width="8" height="17" class="foreground"/><use xlink:href="#g40" y="13277"/></g><g><rect x="0" y="13600" width="24" height="17" class="color7"/><rect x="24" y="13600" width="88" height="17" class="color4"/><rect x="464" y="13600" width="144" height="17" class="color7"/><use xlink:href="#g1" y="13600"/><rect x="360" y="13617" width="8" height="17" class="foreground"/><use xlink:href="#g41" y="13617"/></g><g><rect x="0" y="13940" width="24" height="17" class="color7"/><rect x="24" y="13940" width="88" height="17" class="color4"/><rect x="464" y="13940" width="144" height="17" class="color7"/><use xlink:href="#g1" y="13940"/><rect x="360" y="13957" width="8" height="17" class="foreground"/><use xlink:href="#g41" y="13957"/></g><g><rect x="0" y="14280" width="24" height="17" class="color7"/><rect x="24" y="14280" width="88" height="17" class="color4"/><rect x="464" y="14280" width="144" height="17" class="color7"/><use xlink:href="#g1" y="14280"/><use xlink:href="#g42" y="14297"/></g><g><use xlink:href="#g43" y="14620"/><rect x="0" y="14637" width="8" height="17" class="foreground"/><use xlink:href="#g4" y="14637"/></g><g><use xlink:href="#g43" y="14960"/><rect x="0" y="14977" width="8" height="17" class="foreground"/><use xlink:href="#g4" y="14977"/></g><g><use xlink:href="#g43" y="15300"/><use xlink:href="#g44" y="15317"/><rect x="0" y="15334" width="8" height="17" class="foreground"/><use xlink:href="#g45" y="15334"/></g><g><use xlink:href="#g43" y="15640"/><use xlink:href="#g44" y="15657"/><use xlink:href="#g46" y="15674"/><rect x="0" y="15691" width="8" height="17" class="foreground"/><use xlink:href="#g45" y="15691"/></g><g><use xlink:href="#g43" y="15980"/><use xlink:href="#g44" y="15997"/><use xlink:href="#g46" y="16014"/><use xlink:href="#g46" y="16031"/><rect x="0" y="16048" width="8" height="17" class="foreground"/><use xlink:href="#g45" y="16048"/></g><g><use xlink:href="#g43" y="16320"/><use xlink:href="#g44" y="16337"/><use xlink:href="#g46" y="16354"/><use xlink:href="#g46" y="16371"/><use xlink:href="#g47" y="16388"/><rect x="0" y="16405" width="8" height="17" class="foreground"/><use xlink:href="#g45" y="16405"/></g><g><use xlink:href="#g43" y="16660"/><use xlink:href="#g44" y="16677"/><use xlink:href="#g46" y="16694"/><use xlink:href="#g46" y="16711"/><use xlink:href="#g47" y="16728"/><use xlink:href="#g48" y="16745"/><rect x="0" y="16762" width="8" height="17" class="foreground"/><use xlink:href="#g45" y="16762"/></g><g><use xlink:href="#g43" y="17000"/><use xlink:href="#g44" y="17017"/><use xlink:href="#g46" y="17034"/><use xlink:href="#g46" y="17051"/><use xlink:href="#g47" y="17068"/><use xlink:href="#g48" y="17085"/><rect x="0" y="17102" width="8" height="17" class="foreground"/><use xlink:href="#g4" y="17102"/></g><g><use xlink:href="#g43" y="17340"/><use xlink:href="#g44" y="17357"/><use xlink:href="#g46" y="17374"/><use xlink:href="#g46" y="17391"/><use xlink:href="#g47" y="17408"/><use xlink:href="#g48" y="17425"/><rect x="0" y="17442" width="8" height="17" class="foreground"/><use xlink:href="#g4" y="17442"/></g><g><use xlink:href="#g43" y="17680"/><use xlink:href="#g44" y="17697"/><use xlink:href="#g46" y="17714"/><use xlink:href="#g46" y="17731"/><use xlink:href="#g47" y="17748"/><use xlink:href="#g48" y="17765"/><rect x="0" y="17782" width="24" height="17" class="color7"/><rect x="24" y="17782" width="88" height="17" class="color4"/><rect x="464" y="17782" width="144" height="17" class="color7"/><use xlink:href="#g49" y="17782"/><rect x="16" y="17799" width="8" height="17" class="foreground"/><use xlink:href="#g6" y="17799"/></g><g><use xlink:href="#g43" y="18020"/><use xlink:href="#g44" y="18037"/><use xlink:href="#g46" y="18054"/><use xlink:href="#g46" y="18071"/><use xlink:href="#g47" y="18088"/><use xlink:href="#g48" y="18105"/><rect x="0" y="18122" width="24" height="17" class="color7"/><rect x="24" y="18122" width="88" height="17" class="color4"/><rect x="464" y="18122" width="144" height="17" class="color7"/><use xlink:href="#g49" y="18122"/><rect x="16" y="18139" width="8" height="17" class="foreground"/><use xlink:href="#g6" y="18139"/></g><g><use xlink:href="#g43" y="18360"/><use xlink:href="#g44" y="18377"/><use xlink:href="#g46" y="18394"/><use xlink:href="#g46" y="18411"/><use xlink:href="#g47" y="18428"/><use xlink:href="#g48" y="18445"/><rect x="0" y="18462" width="24" height="17" class="color7"/><rect x="24" y="18462" width="88" height="17" class="color4"/><rect x="464" y="18462" width="144" height="17" class="color7"/><use xlink:href="#g49" y="18462"/><use xlink:href="#g50" y="18479"/><rect x="0" y="18496" width="8" height="17" class="foreground"/><use xlink:href="#g45" y="18496"/></g></g></svg>
</svg>
